<svg id="Layer_1" data-name="Layer 1" xmlns="http://www.w3.org/2000/svg" xmlns:xlink="http://www.w3.org/1999/xlink" viewBox="0 0 720 402"><defs><style>.cls-1{fill:none;}.cls-2{clip-path:url(#clip-path);}.cls-3{fill:#ed1c2c;}</style><clipPath id="clip-path"><rect class="cls-1" x="30.08" y="15.71" width="659.92" height="368.45"/></clipPath></defs><title>V5Artboard 1</title><g class="cls-2"><g class="cls-2"><path class="cls-3" d="M115.73,201.18l2.12.14c8.32.51,11.12,1.94,12,2.75.69.6,2.29,3,2.29,11.81v29.81a4.15,4.15,0,0,1-1,3.08c-.38.37-1.87,1.43-7.46,3.27a47,47,0,0,1-8.28,1.91,56.07,56.07,0,0,1-7.63.61,42.29,42.29,0,0,1-32-13.81c-8.63-9.21-13-22.28-13-38.85,0-20.18,4.38-34.79,13-43.42s18.75-13,30.07-13,20.16,3.6,27.13,11c3.89,4.24,7.74,10.85,11.46,19.64l.58,1.38h8.13l-1.63-43.9h-7.8l-.57,1.41a10.21,10.21,0,0,1-2.31,3.67c-.39.36-1.46.95-4.18.95-.33,0-2.15-.26-11.45-2.92a79.78,79.78,0,0,0-22-3.11c-20.62,0-37.42,7.18-49.93,21.32C42,167.69,36.23,183.26,36.23,201.17c0,20.4,7.25,36.91,21.54,49.05,12.9,11,29,16.53,47.7,16.53a99.18,99.18,0,0,0,31.75-5.6c14.65-5,17.66-8,17.66-10.91V213.41c0-5.25,1-8.8,3-10.3.64-.52,2.53-1.43,8-1.79l2.11-.15v-7.83H115.73Z"/><path class="cls-3" d="M269.8,143.54l2,.2c6.15.6,10.46,2,12.47,4.19,1.14,1.21,3,5.1,3,17.6v48.71c0,11.52-1.39,20.09-4.14,25.47-4.86,9.5-14.28,14.12-28.78,14.12-13.15,0-21.79-4.49-26.4-13.72-2.52-5.14-3.79-12.53-3.79-22V158.31c0-8.11,1.54-10.7,2.45-11.53s3.92-2.44,12.63-3l2.1-.15v-7.83H183.8v7.81l2.09.16c8.54.66,11.44,2.24,12.4,3.12s2.42,3.41,2.42,11.45v58.48c0,11.92,2.1,21.7,6.23,29.06,7.7,13.87,22.26,20.9,43.27,20.9,21.26,0,36-7.13,43.65-21.19,4.12-7.55,6.22-18.09,6.22-31.32V165.53c0-12.1,1.77-16.07,2.82-17.35,1.26-1.53,4.48-3.54,12.71-4.44l2-.22v-7.75H269.8Z"/><path class="cls-3" d="M443.57,229.3c-4.56,10.1-9.67,16.5-15.17,19-5.71,2.62-14.84,3.95-27.15,3.95-14.28,0-19-.5-20.48-.92-.47-.13-1.89-.54-1.89-4.41V202.87H405.5c9.49,0,12.54,1.76,13.53,2.81,1.29,1.39,3.18,4.82,4.82,13.28l.35,1.83h8.5V173.05h-8.51l-.34,1.84c-1.57,8.41-3.44,11.85-4.74,13.25-1,1.05-4.05,2.82-13.61,2.82H378.88v-39.5c0-2.84.47-3.58.46-3.58s.65-.47,3.33-.47h25.48c13,0,17.94,1.72,19.83,3.17s4.46,5.12,6.29,14.64l.35,1.83h8.92l-.75-31.28H338.91v7.83l2.1.14c8.33.59,11.08,2.22,12,3.13s2.36,3.58,2.36,11.44v83.25c0,8.57-1.58,10.83-2.26,11.41-1,.8-3.78,2.28-12.17,3.16l-2,.21v7.76H444.06L453.77,228h-9.6Z"/><path class="cls-3" d="M537.56,191.48l-16.44-10.15c-5.91-3.63-10.3-7.13-13.07-10.42A16,16,0,0,1,504.22,160c0-4.67,1.59-8.21,4.86-10.79a18.53,18.53,0,0,1,12-4c6.08,0,12.36,2.26,18.67,6.71s10.88,12.44,13.78,23.85l.43,1.7h8.73l-4.57-44.35h-7.65l-.42,1.72a9.7,9.7,0,0,1-1.62,3.78c-.41.51-1.52.8-3,.8-.31,0-1.9-.32-9.6-3-6.22-2.18-11.65-3.28-16.15-3.28-10.93,0-19.85,3.39-26.54,10.07s-10.07,15.15-10.07,25.17c0,7.67,2.86,14.75,8.55,21.08a59.28,59.28,0,0,0,12,9.62l15.95,10c9,5.61,14.94,9.84,17.64,12.54a19.75,19.75,0,0,1,5.92,14.33c0,6.14-1.87,10.75-5.74,14.11a20.47,20.47,0,0,1-14,5.11c-10.4,0-18.88-4-25.92-12.27-4.07-4.78-7.69-11.32-10.74-19.44l-.55-1.46h-8.45l6.21,44.35h8l.3-1.89a10.11,10.11,0,0,1,1.24-3.54c.33-.58,1.16-.87,2.42-.87.32,0,2,.33,10.14,3.16a57.61,57.61,0,0,0,18.89,3.42c12,0,22.07-3.52,29.86-10.44a33.86,33.86,0,0,0,11.87-26.27,32.49,32.49,0,0,0-6.73-20.41c-4.37-5.48-11.89-11.52-22.35-18"/><path class="cls-3" d="M677.13,209.45c-4.37-5.48-11.89-11.52-22.36-18l-16.43-10.15c-5.91-3.63-10.3-7.13-13.07-10.42A16,16,0,0,1,621.44,160c0-4.67,1.59-8.21,4.85-10.79a18.55,18.55,0,0,1,12-4c6.08,0,12.36,2.26,18.67,6.71s10.88,12.44,13.78,23.85l.43,1.7h8.73l-4.57-44.35h-7.65l-.41,1.72a10,10,0,0,1-1.62,3.78,4.15,4.15,0,0,1-3,.8c-.31,0-1.9-.32-9.6-3-6.22-2.18-11.65-3.28-16.15-3.28-10.92,0-19.86,3.39-26.54,10.07s-10.07,15.15-10.07,25.17c0,7.67,2.87,14.75,8.55,21.09a59.81,59.81,0,0,0,12,9.61l16,10c9,5.61,14.94,9.84,17.64,12.54a19.8,19.8,0,0,1,5.93,14.33c0,6.14-1.88,10.75-5.75,14.11a20.46,20.46,0,0,1-14,5.11c-10.41,0-18.9-4-25.93-12.27-4.07-4.78-7.69-11.32-10.74-19.44l-.55-1.46h-8.45l6.21,44.35h8l.3-1.89a10.11,10.11,0,0,1,1.24-3.54c.33-.58,1.16-.87,2.42-.87.32,0,2,.33,10.14,3.16a57.6,57.6,0,0,0,18.88,3.42c12,0,22.08-3.52,29.87-10.44a33.88,33.88,0,0,0,11.87-26.27,32.49,32.49,0,0,0-6.73-20.41"/></g></g></svg>